<svg xmlns="http://www.w3.org/2000/svg" xmlns:xlink="http://www.w3.org/1999/xlink" width="32" height="31" viewBox="0 0 32 31">
  <defs>
    <linearGradient id="linear-gradient" x1="0.5" y1="0.039" x2="0.22" y2="1" gradientUnits="objectBoundingBox">
      <stop offset="0" stop-color="#a63998"/>
      <stop offset="0.408" stop-color="#a21d49"/>
      <stop offset="1" stop-color="#d2da14"/>
    </linearGradient>
  </defs>
  <g id="Group_126" data-name="Group 126" transform="translate(-7488 -2479)">
    <rect id="Rectangle_45" data-name="Rectangle 45" width="32" height="31" rx="9" transform="translate(7488 2479)" fill="url(#linear-gradient)"/>
    <path id="Icon_awesome-instagram" data-name="Icon awesome-instagram" d="M10.734,7.468a5.5,5.5,0,1,0,5.5,5.5A5.5,5.5,0,0,0,10.734,7.468Zm0,9.083a3.579,3.579,0,1,1,3.579-3.579,3.585,3.585,0,0,1-3.579,3.579Zm7.013-9.308a1.284,1.284,0,1,1-1.284-1.284A1.281,1.281,0,0,1,17.747,7.243Zm3.646,1.3a6.353,6.353,0,0,0-1.734-4.5,6.4,6.4,0,0,0-4.5-1.734c-1.772-.1-7.085-.1-8.858,0A6.386,6.386,0,0,0,1.8,4.043,6.374,6.374,0,0,0,.07,8.541c-.1,1.772-.1,7.085,0,8.858A6.353,6.353,0,0,0,1.8,21.9a6.4,6.4,0,0,0,4.5,1.734c1.772.1,7.085.1,8.858,0a6.353,6.353,0,0,0,4.5-1.734,6.4,6.4,0,0,0,1.734-4.5c.1-1.772.1-7.08,0-8.853ZM19.1,19.3a3.623,3.623,0,0,1-2.041,2.041c-1.413.56-4.767.431-6.328.431s-4.92.125-6.328-.431A3.623,3.623,0,0,1,2.365,19.3c-.56-1.413-.431-4.767-.431-6.328s-.125-4.92.431-6.328A3.623,3.623,0,0,1,4.406,4.6c1.413-.56,4.767-.431,6.328-.431s4.92-.125,6.328.431A3.623,3.623,0,0,1,19.1,6.644c.56,1.413.431,4.767.431,6.328S19.663,17.892,19.1,19.3Z" transform="translate(7493.17 2481.528)" fill="#fff"/>
  </g>
</svg>
