<svg xmlns="http://www.w3.org/2000/svg" width="22.921" height="22.925" viewBox="0 0 22.921 22.925">
  <g id="Icon_ionic-ios-chatboxes" data-name="Icon ionic-ios-chatboxes" transform="translate(-3.375 -3.375)">
    <path id="Path_5" data-name="Path 5" d="M26,11.981H13.786a2.1,2.1,0,0,0-2.1,2.1v8.5a2.1,2.1,0,0,0,2.1,2.094h6.988a.6.6,0,0,1,.419.176l3.472,3.2c.193.187.513.11.513-.16V25.109c0-.331.209-.435.54-.435h.055a2.294,2.294,0,0,0,2.32-2.094v-8.5A2.091,2.091,0,0,0,26,11.981Z" transform="translate(-1.797 -1.861)"/>
    <path id="Path_6" data-name="Path 6" d="M10.341,8.77h9.777v-3.6a1.8,1.8,0,0,0-1.8-1.8H5.172a1.8,1.8,0,0,0-1.8,1.8v9.1a1.8,1.8,0,0,0,1.8,1.8H8.539V10.567A1.805,1.805,0,0,1,10.341,8.77Z" transform="translate(0 0)"/>
  </g>
</svg>
