<svg xmlns="http://www.w3.org/2000/svg" width="17.995" height="12.458" viewBox="0 0 17.995 12.458">
  <g id="Icon_ionic-ios-mail" data-name="Icon ionic-ios-mail" transform="translate(-3.375 -7.875)">
    <path id="Path_203" data-name="Path 203" d="M21.223,10.34l-4.655,4.741a.084.084,0,0,0,0,.121l3.257,3.469a.561.561,0,0,1,0,.8.564.564,0,0,1-.8,0l-3.244-3.456a.089.089,0,0,0-.125,0l-.792.8a3.483,3.483,0,0,1-2.483,1.047,3.553,3.553,0,0,1-2.535-1.077l-.761-.774a.089.089,0,0,0-.125,0L5.72,19.468a.564.564,0,0,1-.8,0,.561.561,0,0,1,0-.8L8.181,15.2a.092.092,0,0,0,0-.121L3.522,10.34a.085.085,0,0,0-.147.061v9.486a1.388,1.388,0,0,0,1.384,1.384H19.986a1.388,1.388,0,0,0,1.384-1.384V10.4A.087.087,0,0,0,21.223,10.34Z" transform="translate(0 -0.938)"/>
    <path id="Path_204" data-name="Path 204" d="M12.7,15.8a2.352,2.352,0,0,0,1.691-.709l6.787-6.908a1.36,1.36,0,0,0-.857-.3H5.082a1.351,1.351,0,0,0-.857.3l6.787,6.908A2.352,2.352,0,0,0,12.7,15.8Z" transform="translate(-0.327)"/>
  </g>
</svg>
