<svg xmlns="http://www.w3.org/2000/svg" width="20.07" height="20.07" viewBox="0 0 20.07 20.07">
  <path id="Icon_material-gps-fixed" data-name="Icon material-gps-fixed" d="M11.535,7.886a3.649,3.649,0,1,0,3.649,3.649A3.648,3.648,0,0,0,11.535,7.886Zm8.156,2.737a8.205,8.205,0,0,0-7.243-7.243V1.5H10.623V3.379a8.205,8.205,0,0,0-7.243,7.243H1.5v1.825H3.379a8.205,8.205,0,0,0,7.243,7.243V21.57h1.825V19.69a8.205,8.205,0,0,0,7.243-7.243H21.57V10.623Zm-8.156,7.3a6.386,6.386,0,1,1,6.386-6.386A6.381,6.381,0,0,1,11.535,17.921Z" transform="translate(-1.5 -1.5)" fill="#8c8c8c"/>
</svg>
